<svg width="15" height="15" viewBox="0 0 15 15" fill="none" xmlns="http://www.w3.org/2000/svg">
<path d="M13.896 10.6576L12.0081 8.77366C11.3338 8.10082 10.1876 8.36998 9.91786 9.24466C9.71558 9.85024 9.04132 10.1867 8.43448 10.0521C7.08596 9.71565 5.26546 7.96625 4.92833 6.55328C4.72605 5.94769 5.13061 5.27485 5.73744 5.07302C6.61398 4.80388 6.88368 3.66005 6.20942 2.98721L4.32149 1.10324C3.78209 0.632252 2.97297 0.632252 2.50099 1.10324L1.2199 2.38165C-0.0611979 3.72733 1.35475 7.29341 4.52377 10.4558C7.6928 13.6181 11.2664 15.0984 12.6149 13.7527L13.896 12.4743C14.368 11.936 14.368 11.1286 13.896 10.6576Z" fill="#36D000"/>
</svg>
